<svg width="100" height="110" viewBox="0 0 100 110" fill="none" xmlns="http://www.w3.org/2000/svg">
<path d="M0 20.4137C0 9.13951 12.0487 0 26.9116 0H73.0884C87.9513 0 100 9.13951 100 20.4137C100 27.5526 95.169 33.8357 87.8515 37.4842C95.169 41.133 100 47.4159 100 54.5549C100 65.8291 87.9513 74.9687 73.0884 74.9687H72.504C65.5363 74.9687 59.1869 72.96 54.4076 69.6643V88.4735C54.4076 99.8979 42.0439 109.109 27.0566 109.109C12.2308 109.109 0 99.9973 0 88.6951C0 81.5566 4.83054 75.2739 12.1474 71.6251C4.83054 67.9763 0 61.6934 0 54.5549C0 47.4159 4.83096 41.133 12.1483 37.4842C4.83096 33.8357 0 27.5526 0 20.4137ZM45.5924 40.8278H26.9116C16.9171 40.8278 8.81513 46.9737 8.81513 54.5549C8.81513 62.1068 16.8546 68.2344 26.7959 68.2817C26.8344 68.2815 26.8729 68.2815 26.9116 68.2815H45.5924V40.8278ZM54.4076 54.5549C54.4076 62.136 62.5095 68.2819 72.504 68.2819H73.0884C83.0829 68.2819 91.1848 62.136 91.1848 54.5549C91.1848 46.9737 83.0829 40.8278 73.0884 40.8278H72.504C62.5095 40.8278 54.4076 46.9737 54.4076 54.5549ZM26.9116 74.9687C26.8729 74.9687 26.8344 74.9685 26.7959 74.9685C16.8546 75.0156 8.81513 81.1432 8.81513 88.6951C8.81513 96.2486 17.0254 102.422 27.0566 102.422C37.2495 102.422 45.5924 96.1492 45.5924 88.4735V74.9687H26.9116ZM26.9116 6.68671C16.9171 6.68671 8.81513 12.8325 8.81513 20.4137C8.81513 27.995 16.9171 34.1406 26.9116 34.1406H45.5924V6.68671H26.9116ZM54.4076 34.1406H73.0884C83.0829 34.1406 91.1848 27.995 91.1848 20.4137C91.1848 12.8325 83.0829 6.68671 73.0884 6.68671H54.4076V34.1406Z" fill="white"/>
</svg>
