<svg width="100" height="95" viewBox="0 0 100 95" fill="none" xmlns="http://www.w3.org/2000/svg">
<path d="M89.2857 0H10.7143C4.79911 0 0 4.51401 0 10.0778V83.9816C0 89.5454 4.79911 94.0594 10.7143 94.0594H89.2857C95.2009 94.0594 100 89.5454 100 83.9816V10.0778C100 4.51401 95.2009 0 89.2857 0ZM54.4196 73.3579C54.4196 82.5119 48.7054 86.69 40.3795 86.69C32.8571 86.69 28.5045 83.0368 26.2723 78.6068L33.9286 74.2607C35.4018 76.7172 36.7411 78.7957 39.9777 78.7957C43.058 78.7957 45.0223 77.662 45.0223 73.232V43.1875H54.4196V73.3579ZM76.6518 86.69C67.9241 86.69 62.2768 82.7849 59.5313 77.662L67.1875 73.5049C69.1964 76.5912 71.8304 78.8797 76.4509 78.8797C80.3348 78.8797 82.8348 77.0531 82.8348 74.5127C82.8348 71.4893 80.2902 70.4186 75.9821 68.634L73.6384 67.6892C66.8527 64.9808 62.3661 61.5585 62.3661 54.3571C62.3661 47.7225 67.7455 42.6837 76.1161 42.6837C82.0982 42.6837 86.3839 44.6362 89.4643 49.7591L82.1429 54.1681C80.5357 51.4597 78.7946 50.389 76.0938 50.389C73.3482 50.389 71.6071 52.0266 71.6071 54.1681C71.6071 56.8136 73.3482 57.8843 77.3884 59.543L79.7321 60.4878C87.7232 63.7001 92.2098 66.9963 92.2098 74.3867C92.2098 82.323 85.558 86.69 76.6518 86.69Z" fill="white"/>
</svg>
