<svg width="449" height="196" viewBox="0 0 449 196" fill="none" xmlns="http://www.w3.org/2000/svg">
<g filter="url(#filter0_d_198_2)">
<g clip-path="url(#clip0_198_2)">
<path d="M4 30C4 13.4315 17.4315 0 34 0H415C431.569 0 445 13.4315 445 30V158C445 174.569 431.569 188 415 188H34C17.4315 188 4 174.569 4 158V30Z" fill="white"/>
<path d="M54.538 42.276H49.654V59H41.773V42.276H36.63L36.963 36.023H54.982L54.538 42.276ZM70.7287 59H56.0767V36.023H71.2467L70.7287 42.128H63.9947V44.903H69.8777V50.231H63.9947V53.376H71.2467L70.7287 59ZM91.2984 43.423C91.2984 44.903 91.0517 46.087 90.5584 46.975C90.0897 47.8383 89.3497 48.603 88.3384 49.269L91.7794 59H83.6024L81.3084 51.082H80.7164V59H73.1314V36.023H82.9364C85.7977 36.023 87.9067 36.6273 89.2634 37.836C90.62 39.02 91.2984 40.8823 91.2984 43.423ZM81.4934 46.568C82.0607 46.568 82.4554 46.4077 82.6774 46.087C82.924 45.7417 83.0474 45.1497 83.0474 44.311C83.0474 43.4723 82.924 42.8927 82.6774 42.572C82.4307 42.2513 82.0484 42.091 81.5304 42.091H80.5684V46.568H81.4934ZM112.147 43.423C112.147 44.903 111.9 46.087 111.407 46.975C110.938 47.8383 110.198 48.603 109.187 49.269L112.628 59H104.451L102.157 51.082H101.565V59H93.98V36.023H103.785C106.646 36.023 108.755 36.6273 110.112 37.836C111.469 39.02 112.147 40.8823 112.147 43.423ZM102.342 46.568C102.909 46.568 103.304 46.4077 103.526 46.087C103.773 45.7417 103.896 45.1497 103.896 44.311C103.896 43.4723 103.773 42.8927 103.526 42.572C103.279 42.2513 102.897 42.091 102.379 42.091H101.417V46.568H102.342ZM122.858 59H115.051V36.023H122.858V59ZM144.863 52.266C144.863 56.7553 142.075 59 136.501 59H126.03V36.023H136.353C139.115 36.023 141.15 36.5163 142.458 37.503C143.79 38.4897 144.456 40.0067 144.456 42.054C144.456 44.1013 143.592 45.68 141.866 46.79V46.938C143.864 47.8507 144.863 49.6267 144.863 52.266ZM134.984 54.412C135.65 54.412 136.094 54.2763 136.316 54.005C136.538 53.709 136.649 53.1047 136.649 52.192C136.649 51.2793 136.525 50.638 136.279 50.268C136.057 49.8733 135.625 49.676 134.984 49.676H133.911V54.412H134.984ZM135.021 45.606C135.465 45.606 135.785 45.458 135.983 45.162C136.205 44.866 136.316 44.3603 136.316 43.645C136.316 42.905 136.205 42.3747 135.983 42.054C135.785 41.7333 135.452 41.573 134.984 41.573H133.911V45.606H135.021ZM160.679 59H146.878V36.023H154.796V53.043H161.197L160.679 59ZM176.815 59H162.163V36.023H177.333L176.815 42.128H170.081V44.903H175.964V50.231H170.081V53.376H177.333L176.815 59Z" fill="black"/>
<path d="M270.618 51.339C271.062 51.339 271.654 51.265 272.394 51.117V48.897H270.544V43.791H279.276V57H273.689L273.134 55.816H272.986C271.703 56.852 270.186 57.37 268.435 57.37C262.663 57.37 259.777 53.4727 259.777 45.678C259.777 41.7807 260.554 38.8083 262.108 36.761C263.687 34.689 266.338 33.653 270.063 33.653C272.826 33.653 275.44 34.0353 277.907 34.8L276.686 41.756C273.923 40.9913 271.938 40.609 270.729 40.609C269.545 40.609 268.756 41.0037 268.361 41.793C267.991 42.5823 267.806 43.9267 267.806 45.826C267.806 47.7253 267.979 49.119 268.324 50.007C268.694 50.895 269.459 51.339 270.618 51.339ZM300.543 41.423C300.543 42.903 300.297 44.087 299.803 44.975C299.335 45.8383 298.595 46.603 297.583 47.269L301.024 57H292.847L290.553 49.082H289.961V57H282.376V34.023H292.181C295.043 34.023 297.152 34.6273 298.508 35.836C299.865 37.02 300.543 38.8823 300.543 41.423ZM290.738 44.568C291.306 44.568 291.7 44.4077 291.922 44.087C292.169 43.7417 292.292 43.1497 292.292 42.311C292.292 41.4723 292.169 40.8927 291.922 40.572C291.676 40.2513 291.293 40.091 290.775 40.091H289.813V44.568H290.738ZM317.877 57H303.225V34.023H318.395L317.877 40.128H311.143V42.903H317.026V48.231H311.143V51.376H318.395L317.877 57ZM339.631 57H331.861L331.121 53.448H327.014L326.237 57H318.8L323.573 34.023H334.858L339.631 57ZM330.566 48.675L329.16 40.979H329.012L327.569 48.675H330.566ZM357.186 40.276H352.302V57H344.421V40.276H339.278L339.611 34.023H357.63L357.186 40.276Z" fill="black"/>
<path d="M117.468 102.824L102.62 94.6267C101.081 93.7911 98.5705 93.7911 97.0317 94.6267L82.1834 102.824C79.3217 104.415 77 109.349 77 113.846V146.077C77 149.3 78.4308 153.557 80.1856 155.467L95.0339 171.821C97.6526 174.726 101.945 174.726 104.564 171.821L119.412 155.467C121.167 153.517 122.598 149.3 122.598 146.077V113.846C122.625 109.349 120.303 104.415 117.468 102.824ZM107.047 142.018C106.643 142.615 106.13 142.893 105.617 142.893C105.104 142.893 104.591 142.615 104.186 142.018L99.8933 135.691L95.4659 142.217C95.0609 142.814 94.548 143.092 94.035 143.092C93.522 143.092 93.0091 142.814 92.6041 142.217C91.8212 141.063 91.8212 139.153 92.6041 137.999L97.0317 131.473L92.7121 125.107C91.9292 123.953 91.9292 122.043 92.7121 120.889C93.495 119.735 94.7909 119.735 95.5738 120.889L99.8663 127.216L104.051 121.048C104.834 119.894 106.13 119.894 106.912 121.048C107.695 122.202 107.695 124.112 106.912 125.266L102.728 131.433L107.02 137.76C107.83 138.954 107.83 140.824 107.047 142.018Z" fill="black"/>
<path d="M330.779 102.824L315.931 94.6267C314.392 93.7911 311.881 93.7911 310.342 94.6267L295.494 102.824C292.632 104.415 290.311 109.349 290.311 113.846V146.077C290.311 149.3 291.741 153.557 293.496 155.467L308.344 171.821C310.963 174.726 315.256 174.726 317.874 171.821L332.723 155.467C334.477 153.517 335.908 149.3 335.908 146.077V113.846C335.935 109.349 333.613 104.415 330.779 102.824ZM322.518 125.107L310.909 142.217C310.504 142.814 309.991 143.092 309.478 143.092C308.965 143.092 308.452 142.814 308.047 142.217L303.728 135.771C302.945 134.617 302.945 132.707 303.728 131.553C304.511 130.399 305.807 130.399 306.59 131.553L309.505 135.85L319.683 120.849C320.466 119.695 321.762 119.695 322.545 120.849C323.328 122.003 323.328 123.953 322.518 125.107Z" fill="black"/>
</g>
</g>
<defs>
<filter id="filter0_d_198_2" x="0" y="0" width="449" height="196" filterUnits="userSpaceOnUse" color-interpolation-filters="sRGB">
<feFlood flood-opacity="0" result="BackgroundImageFix"/>
<feColorMatrix in="SourceAlpha" type="matrix" values="0 0 0 0 0 0 0 0 0 0 0 0 0 0 0 0 0 0 127 0" result="hardAlpha"/>
<feOffset dy="4"/>
<feGaussianBlur stdDeviation="2"/>
<feComposite in2="hardAlpha" operator="out"/>
<feColorMatrix type="matrix" values="0 0 0 0 0 0 0 0 0 0 0 0 0 0 0 0 0 0 0.25 0"/>
<feBlend mode="normal" in2="BackgroundImageFix" result="effect1_dropShadow_198_2"/>
<feBlend mode="normal" in="SourceGraphic" in2="effect1_dropShadow_198_2" result="shape"/>
</filter>
<clipPath id="clip0_198_2">
<path d="M4 30C4 13.4315 17.4315 0 34 0H415C431.569 0 445 13.4315 445 30V158C445 174.569 431.569 188 415 188H34C17.4315 188 4 174.569 4 158V30Z" fill="white"/>
</clipPath>
</defs>
</svg>
