<svg width="150" height="155" viewBox="0 0 150 155" fill="none" xmlns="http://www.w3.org/2000/svg">
<path d="M117.188 56.1875L112.969 54.7344C112.969 53.7656 113.438 52.7969 113.438 51.8281C116.719 35.8437 114.375 22.7656 107.344 18.4062C100.312 14.5312 89.0625 18.4062 77.8125 28.5781C76.875 29.5469 75.4687 30.5156 74.5312 31.4844C73.5937 31 73.125 30.0312 72.1875 29.5469C60.9375 18.8906 49.2188 14.5312 42.1875 18.8906C35.1562 22.7656 33.2812 35.3594 36.0937 50.375C36.5625 51.8281 36.5625 53.2812 37.0313 54.7344C35.1563 55.2187 33.75 55.7031 32.3438 56.1875C18.2813 61.0312 9.375 69.2656 9.375 77.0156C9.375 85.25 18.75 93.9687 33.2812 98.8125C34.2187 99.2969 35.625 99.7812 37.0313 99.7812C36.5625 101.234 36.0937 103.172 36.0937 104.625C33.2812 119.641 35.625 131.266 42.1875 135.625C49.2188 139.984 60.9375 135.625 72.6562 124.969C73.5938 124 74.5313 123.031 75.4688 122.547C76.4063 123.516 77.8125 124.969 79.2187 125.937C90.4687 136.109 101.25 139.984 108.281 135.625C115.313 131.266 117.656 118.672 114.844 103.172C114.844 102.203 114.375 100.75 113.906 99.2969C114.844 98.8125 115.781 98.8125 116.25 98.3281C131.25 93 141.094 84.7656 141.094 76.5312C140.625 69.2656 131.25 61.5156 117.188 56.1875ZM82.0312 33.4219C91.875 24.7031 100.781 21.3125 105 23.7344C109.219 26.1562 111.094 36.8125 108.281 50.8594C108.281 51.8281 107.812 52.7969 107.812 53.7656C102.187 52.3125 96.0937 51.3437 90.4687 50.8594C87.1875 46.0156 83.4375 41.1719 79.2187 36.3281L82.0312 33.4219ZM48.2813 84.2812C49.6875 86.7031 50.625 89.125 52.0313 91.5469C53.4375 93.9687 54.8437 96.3906 56.25 98.3281C52.0313 97.8437 48.2812 97.3594 44.0625 96.3906C45 92.5156 46.4063 88.6406 48.2813 84.2812ZM48.2813 70.7187C46.4063 66.8437 45.4687 62.9687 44.0625 59.0937C47.8125 58.125 52.0312 57.6406 55.7812 57.1562C54.375 59.5781 52.9688 61.5156 51.5625 63.9375C50.625 65.875 49.2188 68.2969 48.2813 70.7187ZM51.0937 77.5C52.9687 73.625 54.8438 70.2344 56.7188 66.3594C58.5938 62.9687 60.9375 59.0937 63.2812 55.7031C67.0313 55.2187 71.25 55.2187 75.4688 55.2187C79.6875 55.2187 83.4375 55.2187 87.6563 55.7031C90 59.0937 91.875 62.4844 93.75 66.3594C95.625 69.75 97.5 73.625 99.375 77.5C97.5 81.375 95.625 84.7656 93.75 88.6406C91.875 92.0312 89.5313 95.9062 87.6563 99.2969C83.9063 99.7812 79.6875 99.7812 75.4688 99.7812C71.25 99.7812 67.5 99.7812 63.75 99.2969C61.4063 95.9062 59.5312 92.5156 57.1875 88.6406C54.8437 84.7656 52.9687 81.375 51.0937 77.5ZM97.9687 91.5469C99.375 89.125 100.781 86.7031 101.719 84.2812C103.594 88.1562 105 92.0312 105.938 96.3906C101.719 97.3594 97.9687 97.8437 93.75 98.3281C95.625 95.9062 97.0312 93.4844 97.9687 91.5469ZM101.719 70.7187C100.313 68.2969 99.375 65.875 97.9687 63.4531C96.5625 61.0312 95.1563 59.0937 94.2188 56.6719C98.4375 57.1562 102.188 58.125 106.406 58.6094C105 62.9687 103.594 66.8437 101.719 70.7187ZM75 40.2031C77.8125 43.1094 80.1563 46.5 82.5 49.8906C77.3438 49.4062 72.1875 49.4062 67.0313 49.8906C69.8438 46.5 72.6562 43.1094 75 40.2031ZM45 23.7344C49.2188 21.3125 59.0625 24.7031 69.375 34.3906L71.25 36.3281C67.0312 40.6875 63.2813 45.5312 60 50.8594C53.9063 51.3437 48.2813 52.3125 42.6563 53.7656C42.1875 52.3125 42.1875 50.8594 41.7187 49.4062C38.9062 36.3281 40.7813 26.1562 45 23.7344ZM38.4375 94.9375C37.5 94.4531 36.0938 94.4531 35.1562 93.9687C28.5938 91.5469 23.4375 88.6406 19.6875 85.7344C16.4062 82.8281 15 79.9219 15 77.5C15 72.6562 22.0313 66.3594 34.2188 62C35.625 61.5156 37.0313 61.0312 38.9063 60.5469C40.3125 66.3594 42.1875 72.1719 45 77.5C42.1875 83.3125 40.3125 89.125 38.4375 94.9375ZM68.9062 121.578C63.75 126.422 58.5938 129.328 54.375 131.266C50.1563 132.719 47.3438 132.719 45 131.75C40.7813 129.328 38.9063 119.641 41.25 107.047C41.7188 105.109 42.1875 103.656 42.1875 101.719C47.8125 103.172 53.9063 104.141 60 104.141C63.2813 108.984 67.0312 113.828 71.25 118.672C70.3125 119.641 69.8437 120.609 68.9062 121.578ZM75 114.797C72.1875 111.891 69.8438 108.5 67.0313 105.109H82.5C80.625 108.5 77.8125 111.891 75 114.797ZM109.219 123.031C108.281 127.391 106.875 130.297 105 131.266C100.781 133.687 91.875 130.297 82.5 122.062C81.5625 121.094 80.1562 120.125 79.2187 119.156C82.9687 114.797 86.7188 109.953 90 104.625C96.0938 104.141 101.719 103.172 107.812 101.719C108.281 102.687 108.281 104.141 108.75 105.109C110.156 111.891 110.156 118.187 109.219 123.031ZM113.906 93.9687C112.969 93.9687 112.5 94.4531 111.562 94.4531C109.687 88.6406 107.344 82.8281 105 77.0156C107.344 71.6875 109.687 65.875 111.562 60.0625C112.969 60.5469 114.375 61.0312 115.313 61.5156C127.5 65.875 135 72.1719 135 77.0156C135 82.8281 127.031 89.6094 113.906 93.9687Z" fill="white"/>
<path d="M75 89.6093C77.3438 89.6093 79.6875 89.125 81.5625 87.6718C83.4375 86.2187 84.8437 84.2812 85.7812 82.3437C86.7187 79.9218 86.7188 77.5 86.25 75.0781C85.7812 72.6562 84.8438 70.7187 82.9688 68.7812C81.5625 66.8437 79.2188 65.875 76.875 65.3906C74.5312 64.9062 72.1875 65.3906 69.8438 65.875C67.5 66.8437 65.625 68.2968 64.6875 70.2343C63.2813 72.1718 62.8125 74.5937 62.8125 77.0156C62.8125 78.4687 63.2813 80.4062 63.75 81.8593C64.2188 83.3124 65.1563 84.7656 66.0938 85.7343C67.0313 86.7031 68.4375 87.6718 69.8438 88.1562C71.7188 89.125 73.5938 89.6093 75 89.6093Z" fill="white"/>
</svg>
