<svg width="42" height="36" viewBox="0 0 42 36" fill="none" xmlns="http://www.w3.org/2000/svg">
<path d="M21 0C32.592 0 42 8.064 42 18C42 27.936 32.592 36 21 36C9.408 36 0 27.936 0 18C0 8.064 9.408 0 21 0ZM21 9C15.204 9 10.5 13.032 10.5 18C10.5031 19.967 11.2577 21.8791 12.6484 23.4438C14.039 25.0086 15.9892 26.1399 18.2009 26.6648C20.4126 27.1898 22.7639 27.0795 24.8955 26.3508C27.0271 25.6221 28.8217 24.3151 30.0048 22.6296L26.4033 20.7792C25.8365 21.5885 25.0321 22.2564 24.0703 22.7161C23.1085 23.1759 22.0229 23.4115 20.9218 23.3996C19.8206 23.3876 18.7423 23.1284 17.7944 22.6478C16.8466 22.1673 16.0622 21.4822 15.5196 20.6608C14.977 19.8394 14.695 18.9104 14.7019 17.9665C14.7087 17.0225 15.0041 16.0967 15.5586 15.2811C16.1131 14.4655 16.9073 13.7888 17.862 13.3184C18.8168 12.848 19.8987 12.6003 21 12.6C23.2953 12.6 25.305 13.6512 26.4054 15.2226L30.0048 13.3686C29.0718 12.0358 27.752 10.9329 26.1739 10.1673C24.5959 9.40173 22.8133 8.99956 21 9Z" fill="white"/>
</svg>
