<svg width="39" height="27" viewBox="0 0 39 27" fill="none" xmlns="http://www.w3.org/2000/svg">
<path d="M20.9391 2.975C27.6966 3.55834 32.9878 7.18959 33.8378 11.8271C33.9653 12.5708 34.8791 13.1104 35.9416 13.1104C36.0266 13.1104 36.1116 13.1104 36.1966 13.0958C37.3653 12.9938 38.1941 12.2646 38.0453 11.4625C37.5231 8.56656 35.6066 5.87323 32.6 3.80987C29.5934 1.74651 25.6689 0.431299 21.4491 0.0729187C20.2803 -0.0145813 19.2178 0.554169 19.0903 1.35625C18.9416 2.15834 19.7703 2.8875 20.9391 2.975ZM21.7466 6.05208C20.6203 5.84792 19.4516 6.31459 19.1541 7.10209C18.8566 7.88959 19.5366 8.67709 20.6841 8.88125C21.7836 9.07713 22.7869 9.47107 23.5901 10.0223C24.3934 10.5736 24.9674 11.2621 25.2528 12.0167C25.3944 12.3916 25.7468 12.7126 26.2328 12.9095C26.7188 13.1063 27.2987 13.1628 27.8453 13.0667C28.9716 12.8625 29.6516 12.0604 29.3753 11.2875C28.897 10.0281 27.9379 8.87909 26.5969 7.95883C25.256 7.03856 23.5816 6.38036 21.7466 6.05208ZM34.4328 17.8646L29.0353 17.4417C28.4007 17.3905 27.7573 17.4387 27.1537 17.5827C26.5501 17.7267 26.0019 17.9627 25.5503 18.2729L21.6403 20.9563C15.6078 18.8507 10.7046 15.4858 7.63656 11.3458L11.5678 8.64792C12.4816 8.02083 12.9278 7.14584 12.7791 6.25625L12.1628 2.58125C12.0423 1.86984 11.5448 1.21368 10.7651 0.737696C9.98528 0.261712 8.97766 -0.000849122 7.93406 2.06309e-06H4.25781C1.85656 2.06309e-06 -0.140944 1.37084 0.00780614 3.01875C1.13406 15.4729 15.6478 25.4188 33.7741 26.1917C36.1753 26.2938 38.1728 24.9229 38.1728 23.275V20.7521C38.1941 19.2792 36.5791 18.0396 34.4328 17.8646Z" fill="white"/>
</svg>
