<svg width="118" height="108" viewBox="0 0 118 108" fill="none" xmlns="http://www.w3.org/2000/svg">
<path d="M114.571 0.768281C113.439 0.258654 112.177 0.0140628 110.837 0.0440543L110.823 0.0362839C109.554 0.0340651 103.428 0.18335 94.121 0.39777L60.7333 1.22889C36.7784 1.82097 13.2193 2.42196 13.2193 2.42196L13.4937 2.42529C13.4937 2.42529 11.9648 2.30372 9.98589 2.82935C8.79576 3.09869 7.58315 3.65268 6.42143 4.45782C5.03968 5.41792 3.36926 7.14574 2.33294 9.33623C0.570715 13.0342 0.88867 16.0563 1.32211 17.8752C1.76028 19.7166 2.51356 20.8974 2.51356 20.8974L2.54012 20.9129L14.0585 38.4256C12.7789 42.2814 5.08297 65.1048 3.3524 70.3867C2.31152 73.5373 1.86779 75.6291 1.81281 77.3915C1.76514 78.2806 1.84289 79.0924 2.06931 79.8406C2.1979 80.2109 2.37056 80.545 2.58358 80.8357L2.4518 80.68C2.49019 80.7287 2.49579 80.8105 2.52089 80.8514C2.62231 80.9828 2.70055 81.0548 2.84706 81.1929C4.74587 83.8363 8.17819 82.7004 8.17819 82.7004L8.37434 82.6317L25.4411 75.4228L30.9038 102.898L31.1349 103.341C33.2169 107.454 37.3061 108.235 40.3348 107.165C43.3854 106.087 45.6818 103.769 45.6818 103.769L46.0549 103.398L113.061 17.3071C114.76 15.2098 116.112 13.1054 116.948 10.7847C117.787 8.43166 117.928 6.06839 117.344 4.15852C116.835 2.5848 115.87 1.40365 114.571 0.768281ZM108.384 10.5755C108.191 10.8752 108.25 10.8643 107.812 11.4004L107.781 11.4541L41.4589 96.6418C41.3287 96.7425 41.0706 96.978 40.6564 97.1221C40.2204 97.2731 39.9032 97.343 39.1923 96.0822L32.5023 62.4916L11.3587 71.4353L27.5231 49.5184L85.2786 24.3581C87.6564 23.3257 87.4374 22.6868 87.4374 22.6868C88.8264 20.5258 85.8214 20.8703 85.8214 20.8703L23.8573 34.0255L23.9012 33.9202L10.1318 12.9947L10.1432 12.9752L10.1019 12.9314C10.1456 12.9347 10.1903 12.9346 10.2358 12.9312L10.3877 12.9152L10.5221 12.9218C10.5221 12.9218 34.0944 12.3286 58.0494 11.7365C70.0442 11.4375 82.1283 11.1383 91.4299 10.8947C96.9413 10.7588 102.448 10.6401 107.951 10.5384C108.315 10.5416 108.188 10.4609 108.384 10.5755Z" fill="white"/>
</svg>
