<svg width="54" height="44" viewBox="0 0 54 44" fill="none" xmlns="http://www.w3.org/2000/svg">
<path d="M27 2.75C13.9535 2.75 3.375 11.3695 3.375 22C3.375 32.6305 13.9535 41.25 27 41.25C40.0465 41.25 50.625 32.6305 50.625 22C50.625 11.3695 40.0465 2.75 27 2.75ZM38.3537 17.2605C38.3695 17.4625 38.3695 17.673 38.3695 17.8793C38.3695 24.1871 32.4738 31.4531 21.7002 31.4531C18.3779 31.4531 15.2982 30.6668 12.7037 29.3133C13.1783 29.3563 13.6318 29.3734 14.117 29.3734C16.8592 29.3734 19.3799 28.6172 21.3891 27.3367C18.8156 27.2938 16.6535 25.9188 15.9152 24.0281C16.817 24.1355 17.6291 24.1355 18.5572 23.9422C17.2321 23.7228 16.0411 23.1364 15.1865 22.2827C14.3319 21.4289 13.8664 20.3603 13.8691 19.2586V19.1984C14.6443 19.5551 15.5566 19.7742 16.5111 19.8043C15.7087 19.3686 15.0507 18.7782 14.5954 18.0857C14.14 17.3931 13.9014 16.6197 13.9008 15.834C13.9008 14.9445 14.1855 14.1324 14.6971 13.4277C16.1678 14.903 18.0032 16.1096 20.0837 16.9691C22.1643 17.8285 24.4435 18.3217 26.7732 18.4164C25.9453 15.1723 28.9195 12.5469 32.4949 12.5469C34.1824 12.5469 35.7012 13.1227 36.7717 14.0508C38.0953 13.8488 39.3609 13.4449 40.4895 12.9035C40.0518 14.0078 39.1342 14.9402 37.916 15.5289C39.0973 15.4258 40.2363 15.1594 41.291 14.7855C40.4947 15.7395 39.498 16.5859 38.3537 17.2605Z" fill="#0CAFF5"/>
</svg>
