<svg width="142" height="144" viewBox="0 0 142 144" fill="none" xmlns="http://www.w3.org/2000/svg">
<path d="M80.1118 132H59.1668C57.6876 132 56.4451 130.92 56.2085 129.48L54.0193 113.58C50.2918 112.08 47.0968 110.04 44.0201 107.64L29.2876 113.7C27.986 114.18 26.3885 113.7 25.6785 112.38L13.8451 91.62C13.483 91.0018 13.3553 90.271 13.486 89.5642C13.6167 88.8575 13.9967 88.2232 14.5551 87.78L27.0393 77.82L26.6251 72L27.0393 66L14.5551 56.22C13.9967 55.7768 13.6167 55.1425 13.486 54.4358C13.3553 53.729 13.483 52.9982 13.8451 52.38L25.6785 31.62C26.3885 30.3 27.986 29.76 29.2876 30.3L44.0201 36.3C47.0968 33.96 50.2918 31.92 54.0193 30.42L56.2085 14.52C56.4451 13.08 57.6876 12 59.1668 12H82.8335C84.3126 12 85.5551 13.08 85.7918 14.52L87.9809 30.42C91.7085 31.92 94.9035 33.96 97.9801 36.3L112.713 30.3C114.014 29.76 115.612 30.3 116.322 31.62L128.155 52.38C128.924 53.7 128.569 55.32 127.445 56.22L114.961 66L115.375 72V73.14C112.417 72.42 109.458 72 106.5 72C105.494 72 104.488 72 103.542 72.18C103.542 68.46 102.95 64.74 101.767 61.2L114.251 51.9L109.813 44.1L95.5543 50.34C90.9051 44.8819 84.5986 41.146 77.6268 39.72L75.4376 24H66.5626L64.3735 39.66C57.2735 41.16 51.0018 45 46.446 50.34L32.1868 44.1L27.7493 51.9L40.2335 61.2C37.8668 68.2 37.8668 75.8 40.2335 82.8L27.6901 92.16L32.1276 99.96L46.5051 93.72C51.061 99 57.2734 102.84 64.3143 104.28L66.5034 120H73.071C74.6093 124.5 76.9168 128.52 80.1118 132ZM94.4301 74.16C94.6668 73.44 94.6668 72.72 94.6668 72C94.6668 58.74 84.076 48 71.0001 48C57.9243 48 47.3335 58.74 47.3335 72C47.3335 85.26 57.9243 96 71.0001 96C71.7101 96 72.4201 96 73.1301 95.76C74.9177 90.8053 77.7496 86.3057 81.4284 82.5751C85.1072 78.8445 89.5443 75.9727 94.4301 74.16ZM71.0001 84C64.4918 84 59.1668 78.66 59.1668 72C59.1668 65.34 64.4918 60 71.0001 60C77.5085 60 82.8335 65.4 82.8335 72C82.8335 78.6 77.5676 84 71.0001 84ZM94.6668 90V126L124.25 108L94.6668 90Z" fill="white"/>
</svg>
