<svg width="130" height="135" viewBox="0 0 130 135" fill="none" xmlns="http://www.w3.org/2000/svg">
<path d="M65 0C37.9817 0 37.9167 11.7391 37.9167 11.7391V35.2174H70.4167V41.087H16.25C16.25 41.087 0 38.387 0 70.4348C0 102.483 16.25 99.7826 16.25 99.7826H32.5V90.2446C32.5115 83.4378 35.0119 76.9134 39.4536 72.1002C43.8954 67.2871 49.9164 64.5776 56.1979 64.5652H73.8021C83.8771 64.5652 92.0833 61.5365 92.0833 50.625V11.7391C92.0833 11.7391 92.0183 0 65 0ZM48.75 11.7391C51.7292 11.7391 54.1667 14.3804 54.1667 17.6087C54.1667 20.837 51.7292 23.4783 48.75 23.4783C45.7708 23.4783 43.3333 20.837 43.3333 17.6087C43.3333 14.3804 45.7708 11.7391 48.75 11.7391ZM97.5 35.2174V50.625C97.5 64.7707 86.8562 70.4348 73.8021 70.4348H56.1979C51.3516 70.4425 46.7059 72.5321 43.279 76.2455C39.8522 79.9589 37.9238 84.9931 37.9167 90.2446V123.261C37.9167 123.261 38.2579 135 65 135C91.7475 135 92.0833 123.261 92.0833 123.261V99.7826H59.5833V93.913H113.75C113.75 93.913 130 96.8713 130 64.5652C130 32.2591 113.75 35.2174 113.75 35.2174H97.5ZM81.25 111.522C84.2292 111.522 86.6667 114.163 86.6667 117.391C86.6667 120.62 84.2292 123.261 81.25 123.261C78.2708 123.261 75.8333 120.62 75.8333 117.391C75.8333 114.163 78.2708 111.522 81.25 111.522Z" fill="white"/>
</svg>
