<svg width="332" height="200" viewBox="0 0 332 200" fill="none" xmlns="http://www.w3.org/2000/svg">
<path d="M0 10C0 4.47716 4.47715 0 10 0H322C327.523 0 332 4.47715 332 10V190C332 195.523 327.523 200 322 200H10C4.47716 200 0 195.523 0 190V10Z" fill="black"/>
<path d="M271.636 51.7856H225.197C205.025 51.7856 193 62.5282 193 80.548V121.984C193 140.053 205.025 150.796 225.197 150.796H271.581C291.752 150.796 303.778 140.053 303.778 122.033V80.548C303.833 62.5282 291.808 51.7856 271.636 51.7856ZM263.878 103.914L244.316 121.39C243.484 122.132 242.431 122.479 241.379 122.479C240.326 122.479 239.273 122.132 238.442 121.39C236.834 119.954 236.834 117.578 238.442 116.142L255.066 101.291L238.442 86.4391C236.834 85.0035 236.834 82.6272 238.442 81.1916C240.049 79.7559 242.709 79.7559 244.316 81.1916L263.878 98.6668C265.54 100.102 265.54 102.479 263.878 103.914Z" fill="#F5F5F5"/>
<path d="M29.5412 68V47.6364H37.9531C39.4777 47.6364 40.7936 47.9115 41.9006 48.4616C43.0142 49.0052 43.8726 49.7874 44.4759 50.8082C45.0791 51.8224 45.3807 53.0256 45.3807 54.4176C45.3807 55.8295 45.0724 57.0294 44.456 58.017C43.8395 58.9981 42.9645 59.7472 41.831 60.2642C40.6974 60.7746 39.3551 61.0298 37.804 61.0298H32.4844V57.152H36.8892C37.6316 57.152 38.2514 57.0559 38.7486 56.8636C39.2524 56.6648 39.6335 56.3665 39.892 55.9688C40.1506 55.5644 40.2798 55.0473 40.2798 54.4176C40.2798 53.7879 40.1506 53.2675 39.892 52.8565C39.6335 52.4389 39.2524 52.1274 38.7486 51.9219C38.2448 51.7098 37.625 51.6037 36.8892 51.6037H34.4631V68H29.5412ZM41.0057 58.6932L46.0767 68H40.7074L35.7358 58.6932H41.0057ZM52.3857 68.2585C51.4112 68.2585 50.5462 68.0961 49.7905 67.7713C49.0414 67.4399 48.4482 66.9427 48.0107 66.2798C47.5798 65.6103 47.3643 64.7718 47.3643 63.7642C47.3643 62.9157 47.5135 62.1998 47.8118 61.6165C48.1101 61.0331 48.5211 60.5592 49.0447 60.1946C49.5684 59.83 50.1716 59.5549 50.8544 59.3693C51.5372 59.1771 52.2663 59.0478 53.0419 58.9815C53.9103 58.902 54.6096 58.8191 55.1399 58.733C55.6702 58.6402 56.0547 58.5109 56.2933 58.3452C56.5386 58.1728 56.6612 57.9309 56.6612 57.6193V57.5696C56.6612 57.0592 56.4856 56.6648 56.1342 56.3864C55.7829 56.108 55.3089 55.9688 54.7124 55.9688C54.0694 55.9688 53.5523 56.108 53.1612 56.3864C52.7701 56.6648 52.5215 57.0492 52.4155 57.5398L47.9311 57.3807C48.0637 56.4527 48.4051 55.6241 48.9553 54.8949C49.5121 54.1591 50.2744 53.5824 51.2422 53.1648C52.2166 52.7405 53.3866 52.5284 54.7521 52.5284C55.7266 52.5284 56.6248 52.6444 57.4467 52.8764C58.2687 53.1018 58.9846 53.4332 59.5945 53.8707C60.2043 54.3016 60.675 54.8319 61.0064 55.4616C61.3445 56.0914 61.5135 56.8106 61.5135 57.6193V68H56.9396V65.8722H56.8203C56.5485 66.3892 56.2005 66.8267 55.7763 67.1847C55.3587 67.5426 54.8648 67.8111 54.2947 67.9901C53.7313 68.169 53.0949 68.2585 52.3857 68.2585ZM53.8871 65.0767C54.4107 65.0767 54.8814 64.9706 55.299 64.7585C55.7232 64.5464 56.0613 64.2547 56.3132 63.8835C56.5651 63.5057 56.6911 63.0682 56.6911 62.571V61.1193C56.5518 61.1922 56.3828 61.2585 56.1839 61.3182C55.9917 61.3778 55.7796 61.4342 55.5476 61.4872C55.3156 61.5402 55.0769 61.5866 54.8317 61.6264C54.5864 61.6662 54.3511 61.7027 54.1257 61.7358C53.6683 61.8087 53.2772 61.9214 52.9524 62.0739C52.6342 62.2263 52.389 62.4252 52.2166 62.6705C52.0509 62.9091 51.968 63.1941 51.968 63.5256C51.968 64.0294 52.147 64.4138 52.505 64.679C52.8696 64.9441 53.3303 65.0767 53.8871 65.0767ZM73.1072 52.7273V56.3068H63.4723V52.7273H73.1072ZM65.4908 49.0682H70.353V63.1974C70.353 63.4957 70.3994 63.7377 70.4922 63.9233C70.5916 64.1023 70.7341 64.2315 70.9197 64.3111C71.1054 64.384 71.3274 64.4205 71.5859 64.4205C71.7715 64.4205 71.9671 64.4039 72.1726 64.3707C72.3847 64.331 72.5438 64.2978 72.6499 64.2713L73.3857 67.7812C73.1536 67.8475 72.8255 67.9304 72.4013 68.0298C71.9837 68.1293 71.4832 68.1922 70.8999 68.2188C69.7597 68.2718 68.782 68.1392 67.9666 67.821C67.1579 67.4962 66.5381 66.9924 66.1072 66.3097C65.683 65.6269 65.4775 64.7685 65.4908 63.7344V49.0682ZM82.5632 68.2884C80.9657 68.2884 79.5869 67.9735 78.4268 67.3438C77.2734 66.7074 76.3852 65.8026 75.7621 64.6293C75.1456 63.4493 74.8374 62.0473 74.8374 60.4233C74.8374 58.8456 75.1489 57.4669 75.772 56.2869C76.3951 55.1004 77.2734 54.179 78.407 53.5227C79.5405 52.8598 80.8762 52.5284 82.4141 52.5284C83.5012 52.5284 84.4955 52.6974 85.397 53.0355C86.2985 53.3736 87.0774 53.8741 87.7337 54.5369C88.3899 55.1998 88.9003 56.0185 89.2649 56.9929C89.6295 57.9607 89.8118 59.071 89.8118 60.3239V61.5369H76.5376V58.7131H85.2876C85.281 58.196 85.1584 57.7353 84.9197 57.331C84.6811 56.9266 84.353 56.6117 83.9354 56.3864C83.5244 56.1544 83.0504 56.0384 82.5135 56.0384C81.9699 56.0384 81.4827 56.161 81.0518 56.4062C80.621 56.6449 80.2796 56.973 80.0277 57.3906C79.7758 57.8016 79.6432 58.2689 79.63 58.7926V61.6662C79.63 62.2893 79.7526 62.8362 79.9979 63.3068C80.2431 63.7708 80.5911 64.1321 81.0419 64.3906C81.4927 64.6491 82.0296 64.7784 82.6527 64.7784C83.0836 64.7784 83.4747 64.7187 83.826 64.5994C84.1773 64.4801 84.4789 64.3045 84.7308 64.0724C84.9827 63.8404 85.1716 63.5554 85.2976 63.2173L89.7621 63.3466C89.5765 64.3475 89.1688 65.2192 88.5391 65.9616C87.916 66.6974 87.0973 67.2708 86.0831 67.6818C85.0689 68.0862 83.8956 68.2884 82.5632 68.2884ZM101.284 73.7273C100.7 73.7273 100.15 73.6809 99.6332 73.5881C99.1161 73.5019 98.672 73.3859 98.3008 73.2401L99.3746 69.7102C99.8519 69.8693 100.283 69.9621 100.667 69.9886C101.058 70.0152 101.393 69.9522 101.672 69.7997C101.957 69.6539 102.175 69.392 102.328 69.0142L102.517 68.5568L97.0877 52.7273H102.179L104.993 63.625H105.152L108.005 52.7273H113.126L107.369 69.4616C107.091 70.2969 106.696 71.0327 106.186 71.669C105.682 72.312 105.029 72.8158 104.227 73.1804C103.431 73.545 102.45 73.7273 101.284 73.7273ZM121.627 68.2884C120.023 68.2884 118.645 67.9602 117.491 67.304C116.344 66.6411 115.459 65.7197 114.836 64.5398C114.22 63.3532 113.912 61.9777 113.912 60.4134C113.912 58.8423 114.22 57.4669 114.836 56.2869C115.459 55.1004 116.344 54.179 117.491 53.5227C118.645 52.8598 120.023 52.5284 121.627 52.5284C123.232 52.5284 124.607 52.8598 125.754 53.5227C126.907 54.179 127.792 55.1004 128.409 56.2869C129.032 57.4669 129.343 58.8423 129.343 60.4134C129.343 61.9777 129.032 63.3532 128.409 64.5398C127.792 65.7197 126.907 66.6411 125.754 67.304C124.607 67.9602 123.232 68.2884 121.627 68.2884ZM121.657 64.6193C122.241 64.6193 122.734 64.4403 123.139 64.0824C123.543 63.7244 123.851 63.2273 124.064 62.5909C124.282 61.9545 124.392 61.2187 124.392 60.3835C124.392 59.535 124.282 58.7926 124.064 58.1562C123.851 57.5199 123.543 57.0227 123.139 56.6648C122.734 56.3068 122.241 56.1278 121.657 56.1278C121.054 56.1278 120.544 56.3068 120.126 56.6648C119.715 57.0227 119.4 57.5199 119.181 58.1562C118.969 58.7926 118.863 59.535 118.863 60.3835C118.863 61.2187 118.969 61.9545 119.181 62.5909C119.4 63.2273 119.715 63.7244 120.126 64.0824C120.544 64.4403 121.054 64.6193 121.657 64.6193ZM141.688 61.4077V52.7273H146.54V68H141.907V65.1562H141.748C141.409 66.0909 140.833 66.8333 140.017 67.3835C139.209 67.9271 138.231 68.1989 137.084 68.1989C136.043 68.1989 135.129 67.9602 134.34 67.483C133.551 67.0057 132.938 66.3395 132.5 65.4844C132.063 64.6226 131.841 63.6151 131.834 62.4616V52.7273H136.696V61.5071C136.703 62.3357 136.922 62.9886 137.353 63.4659C137.783 63.9432 138.37 64.1818 139.113 64.1818C139.596 64.1818 140.031 64.0758 140.415 63.8636C140.806 63.6449 141.114 63.33 141.34 62.919C141.572 62.5014 141.688 61.9976 141.688 61.4077ZM149.635 68V52.7273H154.358V55.5114H154.517C154.795 54.5038 155.25 53.7547 155.879 53.2642C156.509 52.767 157.241 52.5185 158.077 52.5185C158.302 52.5185 158.534 52.535 158.773 52.5682C159.011 52.5947 159.233 52.6378 159.439 52.6974V56.9233C159.207 56.8437 158.902 56.7808 158.524 56.7344C158.153 56.688 157.821 56.6648 157.53 56.6648C156.953 56.6648 156.433 56.794 155.969 57.0526C155.511 57.3045 155.15 57.6591 154.885 58.1165C154.626 58.5672 154.497 59.0975 154.497 59.7074V68H149.635ZM36.6804 102.288C35.0829 102.288 33.7041 101.973 32.544 101.344C31.3906 100.707 30.5024 99.8026 29.8793 98.6293C29.2628 97.4493 28.9545 96.0473 28.9545 94.4233C28.9545 92.8456 29.2661 91.4669 29.8892 90.2869C30.5123 89.1004 31.3906 88.179 32.5241 87.5227C33.6577 86.8598 34.9934 86.5284 36.5312 86.5284C37.6184 86.5284 38.6127 86.6974 39.5142 87.0355C40.4157 87.3736 41.1946 87.8741 41.8509 88.5369C42.5071 89.1998 43.0175 90.0185 43.3821 90.9929C43.7467 91.9607 43.929 93.071 43.929 94.3239V95.5369H30.6548V92.7131H39.4048C39.3982 92.196 39.2756 91.7353 39.0369 91.331C38.7983 90.9266 38.4702 90.6117 38.0526 90.3864C37.6416 90.1544 37.1676 90.0384 36.6307 90.0384C36.0871 90.0384 35.5999 90.161 35.169 90.4062C34.7382 90.6449 34.3968 90.973 34.1449 91.3906C33.893 91.8016 33.7604 92.2689 33.7472 92.7926V95.6662C33.7472 96.2893 33.8698 96.8362 34.1151 97.3068C34.3603 97.7708 34.7083 98.1321 35.1591 98.3906C35.6098 98.6491 36.1468 98.7784 36.7699 98.7784C37.2008 98.7784 37.5919 98.7187 37.9432 98.5994C38.2945 98.4801 38.5961 98.3045 38.848 98.0724C39.0999 97.8404 39.2888 97.5554 39.4148 97.2173L43.8793 97.3466C43.6937 98.3475 43.286 99.2192 42.6562 99.9616C42.0331 100.697 41.2145 101.271 40.2003 101.682C39.1861 102.086 38.0128 102.288 36.6804 102.288ZM50.3299 86.7273L52.8455 91.7585L55.4506 86.7273H60.3526L56.087 94.3636L60.5117 102H55.6495L52.8455 96.929L50.1112 102H45.1793L49.614 94.3636L45.3981 86.7273H50.3299ZM62.5724 107.727V86.7273H67.3849V89.3423H67.5341C67.733 88.8783 68.0147 88.4309 68.3793 88C68.7505 87.5691 69.2211 87.2178 69.7912 86.946C70.3679 86.6676 71.0573 86.5284 71.8594 86.5284C72.92 86.5284 73.911 86.8068 74.8324 87.3636C75.7604 87.9205 76.5095 88.7789 77.0795 89.9389C77.6496 91.099 77.9347 92.5772 77.9347 94.3736C77.9347 96.1037 77.6596 97.5521 77.1094 98.7188C76.5658 99.8854 75.83 100.76 74.902 101.344C73.9806 101.927 72.9564 102.219 71.8295 102.219C71.0606 102.219 70.3944 102.093 69.831 101.841C69.2675 101.589 68.7936 101.258 68.4091 100.847C68.0312 100.436 67.7396 99.9948 67.5341 99.5241H67.4347V107.727H62.5724ZM67.3352 94.3636C67.3352 95.1856 67.4446 95.9015 67.6634 96.5114C67.8887 97.1212 68.2102 97.5952 68.6278 97.9332C69.0521 98.2647 69.5592 98.4304 70.1491 98.4304C70.7457 98.4304 71.2528 98.2647 71.6705 97.9332C72.0881 97.5952 72.4029 97.1212 72.6151 96.5114C72.8338 95.9015 72.9432 95.1856 72.9432 94.3636C72.9432 93.5417 72.8338 92.8291 72.6151 92.2259C72.4029 91.6226 72.0881 91.1553 71.6705 90.8239C71.2595 90.4924 70.7524 90.3267 70.1491 90.3267C69.5526 90.3267 69.0455 90.4891 68.6278 90.8139C68.2102 91.1387 67.8887 91.6027 67.6634 92.206C67.4446 92.8092 67.3352 93.5284 67.3352 94.3636ZM87.6218 102.288C86.0243 102.288 84.6455 101.973 83.4854 101.344C82.332 100.707 81.4438 99.8026 80.8207 98.6293C80.2042 97.4493 79.896 96.0473 79.896 94.4233C79.896 92.8456 80.2075 91.4669 80.8306 90.2869C81.4537 89.1004 82.332 88.179 83.4656 87.5227C84.5991 86.8598 85.9348 86.5284 87.4727 86.5284C88.5598 86.5284 89.5541 86.6974 90.4556 87.0355C91.3571 87.3736 92.136 87.8741 92.7923 88.5369C93.4485 89.1998 93.9589 90.0185 94.3235 90.9929C94.6881 91.9607 94.8704 93.071 94.8704 94.3239V95.5369H81.5962V92.7131H90.3462C90.3396 92.196 90.217 91.7353 89.9783 91.331C89.7397 90.9266 89.4116 90.6117 88.994 90.3864C88.583 90.1544 88.109 90.0384 87.5721 90.0384C87.0285 90.0384 86.5413 90.161 86.1104 90.4062C85.6796 90.6449 85.3382 90.973 85.0863 91.3906C84.8344 91.8016 84.7018 92.2689 84.6886 92.7926V95.6662C84.6886 96.2893 84.8112 96.8362 85.0565 97.3068C85.3017 97.7708 85.6497 98.1321 86.1005 98.3906C86.5513 98.6491 87.0882 98.7784 87.7113 98.7784C88.1422 98.7784 88.5333 98.7187 88.8846 98.5994C89.2359 98.4801 89.5375 98.3045 89.7894 98.0724C90.0413 97.8404 90.2302 97.5554 90.3562 97.2173L94.8207 97.3466C94.6351 98.3475 94.2274 99.2192 93.5977 99.9616C92.9746 100.697 92.1559 101.271 91.1417 101.682C90.1275 102.086 88.9542 102.288 87.6218 102.288ZM97.3537 102V86.7273H102.077V89.5114H102.236C102.514 88.5038 102.968 87.7547 103.598 87.2642C104.228 86.767 104.96 86.5185 105.795 86.5185C106.021 86.5185 106.253 86.535 106.491 86.5682C106.73 86.5947 106.952 86.6378 107.158 86.6974V90.9233C106.926 90.8437 106.621 90.7808 106.243 90.7344C105.872 90.688 105.54 90.6648 105.249 90.6648C104.672 90.6648 104.152 90.794 103.688 91.0526C103.23 91.3045 102.869 91.6591 102.604 92.1165C102.345 92.5672 102.216 93.0975 102.216 93.7074V102H97.3537ZM109.139 102V86.7273H114.001V102H109.139ZM111.575 84.9474C110.892 84.9474 110.306 84.7221 109.815 84.2713C109.324 83.8139 109.079 83.2637 109.079 82.6207C109.079 81.9844 109.324 81.4408 109.815 80.9901C110.306 80.5327 110.892 80.304 111.575 80.304C112.264 80.304 112.851 80.5327 113.335 80.9901C113.825 81.4408 114.071 81.9844 114.071 82.6207C114.071 83.2637 113.825 83.8139 113.335 84.2713C112.851 84.7221 112.264 84.9474 111.575 84.9474ZM124.235 102.288C122.638 102.288 121.259 101.973 120.099 101.344C118.945 100.707 118.057 99.8026 117.434 98.6293C116.817 97.4493 116.509 96.0473 116.509 94.4233C116.509 92.8456 116.821 91.4669 117.444 90.2869C118.067 89.1004 118.945 88.179 120.079 87.5227C121.212 86.8598 122.548 86.5284 124.086 86.5284C125.173 86.5284 126.167 86.6974 127.069 87.0355C127.97 87.3736 128.749 87.8741 129.406 88.5369C130.062 89.1998 130.572 90.0185 130.937 90.9929C131.301 91.9607 131.484 93.071 131.484 94.3239V95.5369H118.21V92.7131H126.96C126.953 92.196 126.83 91.7353 126.592 91.331C126.353 90.9266 126.025 90.6117 125.607 90.3864C125.196 90.1544 124.722 90.0384 124.185 90.0384C123.642 90.0384 123.155 90.161 122.724 90.4062C122.293 90.6449 121.951 90.973 121.7 91.3906C121.448 91.8016 121.315 92.2689 121.302 92.7926V95.6662C121.302 96.2893 121.424 96.8362 121.67 97.3068C121.915 97.7708 122.263 98.1321 122.714 98.3906C123.165 98.6491 123.701 98.7784 124.325 98.7784C124.755 98.7784 125.147 98.7187 125.498 98.5994C125.849 98.4801 126.151 98.3045 126.403 98.0724C126.655 97.8404 126.844 97.5554 126.969 97.2173L131.434 97.3466C131.248 98.3475 130.841 99.2192 130.211 99.9616C129.588 100.697 128.769 101.271 127.755 101.682C126.741 102.086 125.567 102.288 124.235 102.288ZM138.829 93.2898V102H133.967V86.7273H138.591V89.5312H138.76C139.098 88.5966 139.674 87.8641 140.49 87.3338C141.305 86.7969 142.276 86.5284 143.403 86.5284C144.477 86.5284 145.408 86.7704 146.197 87.2543C146.993 87.7315 147.609 88.401 148.047 89.2628C148.491 90.1179 148.709 91.1188 148.703 92.2656V102H143.841V93.2202C143.847 92.3717 143.632 91.7088 143.194 91.2315C142.763 90.7543 142.163 90.5156 141.395 90.5156C140.884 90.5156 140.433 90.6283 140.042 90.8537C139.658 91.0724 139.359 91.3873 139.147 91.7983C138.942 92.2093 138.836 92.7064 138.829 93.2898ZM158.842 102.288C157.232 102.288 155.849 101.957 154.696 101.294C153.549 100.631 152.668 99.7098 152.051 98.5298C151.435 97.3433 151.126 95.9711 151.126 94.4134C151.126 92.849 151.435 91.4768 152.051 90.2969C152.674 89.1103 153.559 88.1856 154.706 87.5227C155.859 86.8598 157.235 86.5284 158.832 86.5284C160.244 86.5284 161.474 86.7836 162.521 87.294C163.575 87.8045 164.397 88.527 164.987 89.4616C165.584 90.3897 165.899 91.4801 165.932 92.733H161.388C161.295 91.9508 161.03 91.3376 160.592 90.8935C160.161 90.4493 159.598 90.2273 158.902 90.2273C158.339 90.2273 157.845 90.3864 157.42 90.7045C156.996 91.0161 156.665 91.4801 156.426 92.0966C156.194 92.7064 156.078 93.4621 156.078 94.3636C156.078 95.2652 156.194 96.0275 156.426 96.6506C156.665 97.267 156.996 97.7344 157.42 98.0526C157.845 98.3641 158.339 98.5199 158.902 98.5199C159.353 98.5199 159.75 98.4238 160.095 98.2315C160.446 98.0393 160.735 97.7576 160.96 97.3864C161.186 97.0085 161.328 96.5511 161.388 96.0142H165.932C165.885 97.2737 165.571 98.3741 164.987 99.3153C164.411 100.257 163.598 100.989 162.551 101.513C161.51 102.03 160.274 102.288 158.842 102.288ZM175.559 102.288C173.962 102.288 172.583 101.973 171.423 101.344C170.27 100.707 169.381 99.8026 168.758 98.6293C168.142 97.4493 167.833 96.0473 167.833 94.4233C167.833 92.8456 168.145 91.4669 168.768 90.2869C169.391 89.1004 170.27 88.179 171.403 87.5227C172.537 86.8598 173.872 86.5284 175.41 86.5284C176.497 86.5284 177.492 86.6974 178.393 87.0355C179.295 87.3736 180.074 87.8741 180.73 88.5369C181.386 89.1998 181.896 90.0185 182.261 90.9929C182.626 91.9607 182.808 93.071 182.808 94.3239V95.5369H169.534V92.7131H178.284C178.277 92.196 178.154 91.7353 177.916 91.331C177.677 90.9266 177.349 90.6117 176.931 90.3864C176.52 90.1544 176.047 90.0384 175.51 90.0384C174.966 90.0384 174.479 90.161 174.048 90.4062C173.617 90.6449 173.276 90.973 173.024 91.3906C172.772 91.8016 172.639 92.2689 172.626 92.7926V95.6662C172.626 96.2893 172.749 96.8362 172.994 97.3068C173.239 97.7708 173.587 98.1321 174.038 98.3906C174.489 98.6491 175.026 98.7784 175.649 98.7784C176.08 98.7784 176.471 98.7187 176.822 98.5994C177.173 98.4801 177.475 98.3045 177.727 98.0724C177.979 97.8404 178.168 97.5554 178.294 97.2173L182.758 97.3466C182.573 98.3475 182.165 99.2192 181.535 99.9616C180.912 100.697 180.093 101.271 179.079 101.682C178.065 102.086 176.892 102.288 175.559 102.288ZM32.3949 136L28.4176 120.727H33.2997L35.358 130.511H35.4872L37.6946 120.727H42.4574L44.7244 130.442H44.8537L46.8523 120.727H51.7344L47.7472 136H42.5469L40.1605 127.101H39.9915L37.6051 136H32.3949ZM53.6857 136V120.727H58.5479V136H53.6857ZM56.1218 118.947C55.439 118.947 54.8524 118.722 54.3619 118.271C53.8713 117.814 53.6261 117.264 53.6261 116.621C53.6261 115.984 53.8713 115.441 54.3619 114.99C54.8524 114.533 55.439 114.304 56.1218 114.304C56.8112 114.304 57.3978 114.533 57.8817 114.99C58.3723 115.441 58.6175 115.984 58.6175 116.621C58.6175 117.264 58.3723 117.814 57.8817 118.271C57.3978 118.722 56.8112 118.947 56.1218 118.947ZM70.2635 120.727V124.307H60.6286V120.727H70.2635ZM62.647 117.068H67.5092V131.197C67.5092 131.496 67.5556 131.738 67.6484 131.923C67.7479 132.102 67.8904 132.232 68.076 132.311C68.2616 132.384 68.4837 132.42 68.7422 132.42C68.9278 132.42 69.1233 132.404 69.3288 132.371C69.541 132.331 69.7 132.298 69.8061 132.271L70.5419 135.781C70.3099 135.848 69.9818 135.93 69.5575 136.03C69.1399 136.129 68.6394 136.192 68.0561 136.219C66.916 136.272 65.9382 136.139 65.1229 135.821C64.3142 135.496 63.6944 134.992 63.2635 134.31C62.8393 133.627 62.6338 132.768 62.647 131.734V117.068ZM77.9347 127.29V136H73.0724V115.636H77.7756V123.531H77.9446C78.2893 122.59 78.8527 121.854 79.6349 121.324C80.4238 120.794 81.3883 120.528 82.5284 120.528C83.6023 120.528 84.5369 120.767 85.3324 121.244C86.1278 121.715 86.7443 122.381 87.1818 123.243C87.6259 124.105 87.8447 125.112 87.8381 126.266V136H82.9759V127.22C82.9825 126.372 82.7704 125.709 82.3395 125.232C81.9086 124.754 81.3021 124.516 80.5199 124.516C80.0095 124.516 79.5587 124.628 79.1676 124.854C78.7831 125.072 78.4815 125.387 78.2628 125.798C78.0507 126.209 77.9413 126.706 77.9347 127.29ZM96.8888 136V120.727H101.512V123.531H101.681C102 122.603 102.537 121.871 103.292 121.334C104.048 120.797 104.949 120.528 105.997 120.528C107.057 120.528 107.966 120.8 108.721 121.344C109.477 121.887 109.958 122.616 110.163 123.531H110.322C110.607 122.623 111.164 121.897 111.993 121.354C112.821 120.804 113.799 120.528 114.926 120.528C116.371 120.528 117.544 120.992 118.446 121.92C119.347 122.842 119.798 124.108 119.798 125.719V136H114.936V126.832C114.936 126.07 114.74 125.49 114.349 125.092C113.958 124.688 113.451 124.486 112.828 124.486C112.158 124.486 111.631 124.705 111.247 125.142C110.869 125.573 110.68 126.153 110.68 126.882V136H106.007V126.783C106.007 126.073 105.815 125.513 105.43 125.102C105.046 124.691 104.538 124.486 103.909 124.486C103.484 124.486 103.11 124.589 102.785 124.794C102.46 124.993 102.205 125.278 102.02 125.649C101.841 126.02 101.751 126.458 101.751 126.962V136H96.8888ZM125.237 141.727C124.654 141.727 124.103 141.681 123.586 141.588C123.069 141.502 122.625 141.386 122.254 141.24L123.328 137.71C123.805 137.869 124.236 137.962 124.62 137.989C125.011 138.015 125.346 137.952 125.625 137.8C125.91 137.654 126.128 137.392 126.281 137.014L126.47 136.557L121.041 120.727H126.132L128.946 131.625H129.105L131.958 120.727H137.079L131.322 137.462C131.044 138.297 130.649 139.033 130.139 139.669C129.635 140.312 128.982 140.816 128.18 141.18C127.385 141.545 126.404 141.727 125.237 141.727ZM32.3949 170L28.4176 154.727H33.2997L35.358 164.511H35.4872L37.6946 154.727H42.4574L44.7244 164.442H44.8537L46.8523 154.727H51.7344L47.7472 170H42.5469L40.1605 161.101H39.9915L37.6051 170H32.3949ZM60.4968 170.288C58.8993 170.288 57.5205 169.973 56.3604 169.344C55.207 168.707 54.3188 167.803 53.6957 166.629C53.0792 165.449 52.771 164.047 52.771 162.423C52.771 160.846 53.0825 159.467 53.7056 158.287C54.3287 157.1 55.207 156.179 56.3406 155.523C57.4741 154.86 58.8098 154.528 60.3477 154.528C61.4348 154.528 62.4291 154.697 63.3306 155.036C64.2321 155.374 65.011 155.874 65.6673 156.537C66.3235 157.2 66.8339 158.018 67.1985 158.993C67.5631 159.961 67.7454 161.071 67.7454 162.324V163.537H54.4712V160.713H63.2212C63.2146 160.196 63.092 159.735 62.8533 159.331C62.6147 158.927 62.2866 158.612 61.869 158.386C61.458 158.154 60.984 158.038 60.4471 158.038C59.9035 158.038 59.4163 158.161 58.9854 158.406C58.5546 158.645 58.2132 158.973 57.9613 159.391C57.7094 159.802 57.5768 160.269 57.5636 160.793V163.666C57.5636 164.289 57.6862 164.836 57.9315 165.307C58.1767 165.771 58.5247 166.132 58.9755 166.391C59.4263 166.649 59.9632 166.778 60.5863 166.778C61.0172 166.778 61.4083 166.719 61.7596 166.599C62.1109 166.48 62.4125 166.304 62.6644 166.072C62.9163 165.84 63.1052 165.555 63.2312 165.217L67.6957 165.347C67.5101 166.348 67.1024 167.219 66.4727 167.962C65.8496 168.697 65.0309 169.271 64.0167 169.682C63.0025 170.086 61.8292 170.288 60.4968 170.288ZM70.2287 170V149.636H75.0909V157.342H75.1903C75.3892 156.878 75.6709 156.431 76.0355 156C76.4067 155.569 76.8774 155.218 77.4474 154.946C78.0241 154.668 78.7135 154.528 79.5156 154.528C80.5762 154.528 81.5672 154.807 82.4886 155.364C83.4167 155.92 84.1657 156.779 84.7358 157.939C85.3059 159.099 85.5909 160.577 85.5909 162.374C85.5909 164.104 85.3158 165.552 84.7656 166.719C84.2221 167.885 83.4863 168.76 82.5582 169.344C81.6368 169.927 80.6127 170.219 79.4858 170.219C78.7169 170.219 78.0507 170.093 77.4872 169.841C76.9238 169.589 76.4498 169.258 76.0653 168.847C75.6875 168.436 75.3958 167.995 75.1903 167.524H75.0412V170H70.2287ZM74.9915 162.364C74.9915 163.186 75.1009 163.902 75.3196 164.511C75.545 165.121 75.8665 165.595 76.2841 165.933C76.7083 166.265 77.2154 166.43 77.8054 166.43C78.402 166.43 78.9091 166.265 79.3267 165.933C79.7443 165.595 80.0592 165.121 80.2713 164.511C80.4901 163.902 80.5994 163.186 80.5994 162.364C80.5994 161.542 80.4901 160.829 80.2713 160.226C80.0592 159.623 79.7443 159.155 79.3267 158.824C78.9157 158.492 78.4086 158.327 77.8054 158.327C77.2088 158.327 76.7017 158.489 76.2841 158.814C75.8665 159.139 75.545 159.603 75.3196 160.206C75.1009 160.809 74.9915 161.528 74.9915 162.364ZM101.473 159.391L97.0082 159.51C96.9618 159.192 96.8358 158.91 96.6303 158.665C96.4248 158.413 96.1564 158.217 95.8249 158.078C95.5001 157.932 95.1223 157.859 94.6914 157.859C94.128 157.859 93.6474 157.972 93.2496 158.197C92.8585 158.423 92.6663 158.728 92.6729 159.112C92.6663 159.411 92.7856 159.669 93.0309 159.888C93.2828 160.107 93.7302 160.282 94.3732 160.415L97.3164 160.972C98.841 161.263 99.9746 161.747 100.717 162.423C101.466 163.099 101.844 163.994 101.85 165.108C101.844 166.155 101.532 167.067 100.916 167.842C100.306 168.618 99.4708 169.221 98.4102 169.652C97.3496 170.076 96.1365 170.288 94.771 170.288C92.5901 170.288 90.8699 169.841 89.6104 168.946C88.3576 168.045 87.6417 166.838 87.4627 165.327L92.2653 165.207C92.3713 165.764 92.6464 166.188 93.0906 166.48C93.5347 166.772 94.1014 166.918 94.7908 166.918C95.4139 166.918 95.921 166.802 96.3121 166.57C96.7032 166.338 96.9021 166.029 96.9087 165.645C96.9021 165.3 96.7496 165.025 96.4513 164.82C96.1531 164.607 95.6857 164.442 95.0494 164.322L92.3846 163.815C90.8533 163.537 89.7132 163.023 88.9641 162.274C88.2151 161.518 87.8439 160.557 87.8505 159.391C87.8439 158.37 88.1156 157.498 88.6658 156.776C89.216 156.046 89.9982 155.49 91.0124 155.105C92.0266 154.721 93.2231 154.528 94.6019 154.528C96.6701 154.528 98.3008 154.963 99.494 155.831C100.687 156.693 101.347 157.879 101.473 159.391ZM104.244 170V154.727H109.107V170H104.244ZM106.68 152.947C105.998 152.947 105.411 152.722 104.92 152.271C104.43 151.814 104.185 151.264 104.185 150.621C104.185 149.984 104.43 149.441 104.92 148.99C105.411 148.533 105.998 148.304 106.68 148.304C107.37 148.304 107.956 148.533 108.44 148.99C108.931 149.441 109.176 149.984 109.176 150.621C109.176 151.264 108.931 151.814 108.44 152.271C107.956 152.722 107.37 152.947 106.68 152.947ZM120.822 154.727V158.307H111.187V154.727H120.822ZM113.206 151.068H118.068V165.197C118.068 165.496 118.114 165.738 118.207 165.923C118.306 166.102 118.449 166.232 118.635 166.311C118.82 166.384 119.042 166.42 119.301 166.42C119.486 166.42 119.682 166.404 119.887 166.371C120.1 166.331 120.259 166.298 120.365 166.271L121.1 169.781C120.868 169.848 120.54 169.93 120.116 170.03C119.699 170.129 119.198 170.192 118.615 170.219C117.475 170.272 116.497 170.139 115.681 169.821C114.873 169.496 114.253 168.992 113.822 168.31C113.398 167.627 113.192 166.768 113.206 165.734V151.068ZM130.278 170.288C128.681 170.288 127.302 169.973 126.142 169.344C124.988 168.707 124.1 167.803 123.477 166.629C122.86 165.449 122.552 164.047 122.552 162.423C122.552 160.846 122.864 159.467 123.487 158.287C124.11 157.1 124.988 156.179 126.122 155.523C127.255 154.86 128.591 154.528 130.129 154.528C131.216 154.528 132.21 154.697 133.112 155.036C134.013 155.374 134.792 155.874 135.449 156.537C136.105 157.2 136.615 158.018 136.98 158.993C137.344 159.961 137.527 161.071 137.527 162.324V163.537H124.252V160.713H133.002C132.996 160.196 132.873 159.735 132.635 159.331C132.396 158.927 132.068 158.612 131.65 158.386C131.239 158.154 130.765 158.038 130.228 158.038C129.685 158.038 129.198 158.161 128.767 158.406C128.336 158.645 127.994 158.973 127.743 159.391C127.491 159.802 127.358 160.269 127.345 160.793V163.666C127.345 164.289 127.467 164.836 127.713 165.307C127.958 165.771 128.306 166.132 128.757 166.391C129.208 166.649 129.744 166.778 130.368 166.778C130.798 166.778 131.19 166.719 131.541 166.599C131.892 166.48 132.194 166.304 132.446 166.072C132.698 165.84 132.886 165.555 133.012 165.217L137.477 165.347C137.291 166.348 136.884 167.219 136.254 167.962C135.631 168.697 134.812 169.271 133.798 169.682C132.784 170.086 131.61 170.288 130.278 170.288Z" fill="white"/>
</svg>
