<svg width="178" height="51" viewBox="0 0 178 51" fill="none" xmlns="http://www.w3.org/2000/svg">
<path d="M26.6419 33.155C29.2419 37.315 32.3619 41.3233 36.0019 45.18L27.3569 50.77C23.3702 45.6133 19.5352 39.46 15.8519 32.31C12.8619 37.4667 10.1535 42.9917 7.72688 48.885L0.381875 42.125C3.28521 35.7117 5.88521 30.62 8.18188 26.85C11.9085 20.6533 15.7869 15.1717 19.8169 10.405C16.8269 9.885 14.1185 9.625 11.6919 9.625L14.4869 1.89C22.6335 2.15 29.7185 3.21166 35.7419 5.075C37.9952 5.76833 40.2702 6.61333 42.5669 7.61L47.6369 18.79C43.2169 24.64 36.2185 29.4283 26.6419 33.155ZM18.4519 27.955C24.3452 25.7017 29.5885 22.8633 34.1819 19.44C35.7419 18.3133 37.0852 17.165 38.2119 15.995C34.0952 13.8283 28.6352 12.095 21.8319 10.795L27.4219 15.345C23.9552 19.765 20.9652 23.9683 18.4519 27.955ZM88.1796 21.91C83.5863 17.7933 79.2963 14.5217 75.3096 12.095C70.8896 14.3917 66.9679 18.2917 63.5446 23.795C59.9913 29.4717 57.9979 35.235 57.5646 41.085C64.3679 39.2217 70.1746 34.6067 74.9846 27.24C76.5879 24.7267 77.9963 21.8667 79.2096 18.66L88.1796 21.91C85.2763 30.0567 81.4846 36.3617 76.8046 40.825C71.7346 45.6783 65.1913 48.8633 57.1746 50.38L47.5546 41.54C48.8113 28.1933 54.2929 17.4467 63.9996 9.3C67.3796 6.44 71.3446 3.94833 75.8946 1.825C81.6579 4.77166 86.7279 8.54166 91.1046 13.135L88.1796 21.91ZM120 28.93C122.037 30.2733 124.095 31.8117 126.175 33.545L124.875 41.735C118.982 45.505 111.702 47.845 103.035 48.755C100.565 49.015 98.2252 49.145 96.0152 49.145L88.6702 42.515C94.2168 30.2517 100.782 19.5267 108.365 10.34C105.028 9.86333 102.385 9.625 100.435 9.625L103.23 1.89C108.43 2.10667 113.435 2.62667 118.245 3.45C123.055 4.23 127.757 5.61667 132.35 7.61L137.29 18.595C132.653 23.4483 126.89 26.8933 120 28.93ZM109.275 24.445C113.608 23.405 116.858 22.365 119.025 21.325C122.492 19.7217 125.373 17.9017 127.67 15.865C123.12 13.5683 117.27 11.835 110.12 10.665L115.905 15.345C112.698 19.505 110.488 22.5383 109.275 24.445ZM100.045 40.305C106.978 40.045 112.72 38.68 117.27 36.21C115.753 34.4767 113.045 32.7 109.145 30.88C108.062 30.4033 107.022 29.9483 106.025 29.515C103.728 33.2417 101.735 36.8383 100.045 40.305ZM167.948 8.845C163.312 11.315 159.108 14.6083 155.338 18.725C155.815 20.2417 156.508 21.8667 157.418 23.6C158.328 25.29 159.282 27.11 160.278 29.06C162.922 34 164.807 38.225 165.933 41.735L160.473 50.445C152.37 48.3217 145.177 45.3533 138.893 41.54C136.943 40.3267 135.015 39.07 133.108 37.77L137.463 29.84C144.05 34.39 150.073 37.7267 155.533 39.85C154.493 37.2933 152.933 34.2167 150.853 30.62C148.773 26.98 147.257 24.25 146.303 22.43C145.393 20.5667 144.678 18.725 144.158 16.905C146.845 13.5683 150.268 10.275 154.428 7.025C158.242 4.035 161.882 1.71666 165.348 0.0699959L177.893 8.455C177.07 12.1383 175.185 16.71 172.238 22.17C171.502 23.5567 170.852 24.6617 170.288 25.485L162.488 21C164.222 18.2267 166.042 14.175 167.948 8.845Z" fill="white"/>
</svg>
