<svg width="36" height="32" viewBox="0 0 36 32" fill="none" xmlns="http://www.w3.org/2000/svg">
<path d="M30.6737 27.2659H25.3396V19.8406C25.3396 18.07 25.3041 15.7906 22.5654 15.7906C19.7872 15.7906 19.3621 17.7198 19.3621 19.7117V27.2654H14.0282V11.996H19.1488V14.0827H19.2205C19.7329 13.3038 20.4735 12.6631 21.3632 12.2287C22.2529 11.7944 23.2585 11.5826 24.2729 11.6161C29.6792 11.6161 30.6759 14.7771 30.6759 18.8893L30.6737 27.2659ZM8.00944 9.90883C6.29986 9.90908 4.91372 8.67733 4.91344 7.1577C4.91316 5.63808 6.29873 4.40595 8.00831 4.4057C9.71789 4.40533 11.104 5.63708 11.1043 7.1567C11.1045 7.88646 10.7785 8.58638 10.1981 9.1025C9.61769 9.61862 8.83041 9.90866 8.00944 9.90883ZM10.6765 27.2661H5.33686V11.996H10.6764V27.2659L10.6765 27.2661ZM33.3329 0.00232899H2.65655C1.2067 -0.012171 0.0177188 1.0202 0 2.30895V29.6906C0.0171563 30.9799 1.206 32.0133 2.65641 31.9998H33.3329C34.7864 32.0158 35.9799 30.9825 36 29.6906V2.30683C35.9793 1.01558 34.7857 -0.016671 33.3329 0.000203987" fill="#0A66C2"/>
</svg>
